# Blender v2.80 (sub 75) OBJ File: 'grass.blend'
# www.blender.org
mtllib grass.mtl
o Foliage01_col
v 0.001405 0.041166 1.086283
v -0.312849 0.788353 1.094204
v 0.020729 0.041166 0.962334
v -0.312827 0.791164 0.979070
v -0.227867 0.673268 1.090609
v -0.143471 0.565248 1.085900
v -0.077818 0.446664 1.082695
v -0.034695 0.313840 1.081537
v -0.009375 0.178631 1.082308
v -0.002115 0.178631 0.963150
v -0.038211 0.313840 0.964125
v -0.084565 0.446707 0.957487
v -0.147015 0.568811 0.961650
v -0.227586 0.674015 0.973275
v 0.005718 0.035112 0.997215
v -0.132954 0.571767 0.848660
v 0.067850 0.035112 0.956092
v -0.065793 0.577285 0.794859
v -0.091548 0.491866 0.885134
v -0.060635 0.404805 0.917230
v -0.036240 0.314714 0.944427
v -0.016037 0.223067 0.966310
v -0.001310 0.129867 0.983370
v 0.060288 0.129867 0.934475
v 0.045461 0.223067 0.913503
v 0.027676 0.314714 0.896218
v 0.002826 0.404805 0.865678
v -0.028560 0.493334 0.831934
v 0.058348 0.031630 0.926990
v 0.073710 0.576844 0.725413
v 0.138487 0.031630 0.941048
v 0.154441 0.576623 0.733966
v 0.069806 0.489861 0.775975
v 0.066443 0.401324 0.819535
v 0.063816 0.311232 0.856393
v 0.061338 0.219586 0.885648
v 0.059679 0.126385 0.908731
v 0.140319 0.126385 0.916587
v 0.142061 0.219586 0.894034
v 0.144343 0.311232 0.864478
v 0.147165 0.401324 0.827921
v 0.150543 0.489492 0.784639
v 0.100768 0.059172 0.992848
v 0.303215 0.584316 0.929437
v 0.130144 0.059172 1.045942
v 0.322710 0.584316 1.008217
v 0.254045 0.504453 0.937541
v 0.211501 0.426691 0.941018
v 0.176068 0.338773 0.949123
v 0.147491 0.247127 0.957003
v 0.123535 0.153926 0.971211
v 0.145180 0.153926 1.041796
v 0.166986 0.247127 1.035783
v 0.195563 0.338773 1.027904
v 0.230996 0.426691 1.019799
v 0.273540 0.504453 1.016322
v 0.100997 0.040942 1.048679
v 0.196933 0.580825 1.236497
v 0.029292 0.040942 1.086690
v 0.125228 0.580825 1.274509
v 0.172565 0.495457 1.187916
v 0.152033 0.409636 1.142437
v 0.134356 0.320543 1.107773
v 0.119784 0.228897 1.081959
v 0.108664 0.135697 1.062261
v 0.036960 0.135697 1.100273
v 0.048080 0.228897 1.119971
v 0.062652 0.320543 1.145785
v 0.080329 0.409636 1.180449
v 0.100861 0.495457 1.225928
v 0.007108 0.049821 0.967889
v -0.202653 0.831228 0.716120
v 0.108769 0.049821 0.908502
v -0.084481 0.847173 0.658384
v -0.134618 0.694811 0.788154
v -0.085818 0.589341 0.844790
v -0.044782 0.455449 0.884227
v -0.022115 0.322494 0.920773
v -0.004819 0.187285 0.948660
v 0.096843 0.187285 0.889273
v 0.079547 0.322494 0.861385
v 0.056880 0.455449 0.824839
v 0.022895 0.596150 0.786108
v -0.018366 0.708901 0.730226
v -0.001696 0.041665 0.905898
v 0.145516 0.598381 0.723724
v 0.059321 0.041665 0.976702
v 0.210847 0.600474 0.779318
v 0.106531 0.512633 0.773689
v 0.068460 0.432149 0.823860
v 0.038586 0.343794 0.862668
v 0.018424 0.244829 0.887701
v 0.005764 0.144088 0.901699
v 0.069885 0.144088 0.963343
v 0.086758 0.244829 0.942387
v 0.112902 0.343826 0.919284
v 0.140688 0.434804 0.881832
v 0.172986 0.513190 0.830493
v 0.046771 0.037154 0.951344
v 0.198025 0.437006 0.944358
v 0.040115 0.037154 1.006458
v 0.196137 0.441118 1.008446
v 0.157336 0.377473 0.950249
v 0.124197 0.312606 0.952299
v 0.096985 0.245480 0.953014
v 0.074813 0.177197 0.953917
v 0.058021 0.107755 0.954039
v 0.056034 0.107755 1.012602
v 0.075094 0.177197 1.014311
v 0.093490 0.245480 1.012562
v 0.122819 0.312606 1.013202
v 0.157121 0.378567 1.011680
v 0.061219 0.034560 1.015114
v 0.168205 0.440789 1.121144
v 0.014553 0.034560 1.053809
v 0.124378 0.440625 1.162833
v 0.141394 0.375980 1.094520
v 0.118296 0.310012 1.071583
v 0.098646 0.242886 1.052299
v 0.083239 0.174603 1.036770
v 0.070939 0.105161 1.024684
v 0.027551 0.105161 1.066658
v 0.039510 0.174603 1.078534
v 0.055182 0.242886 1.094097
v 0.074567 0.310012 1.113347
v 0.097500 0.375705 1.136158
v 0.003364 0.055081 1.007396
v -0.058380 0.446356 1.152904
v -0.040950 0.055081 0.998437
v -0.112502 0.446356 1.125936
v -0.039243 0.386851 1.121086
v -0.020678 0.328913 1.095262
v -0.008172 0.263407 1.071240
v 0.001151 0.195123 1.051217
v 0.004653 0.125681 1.030762
v -0.045856 0.125681 1.008971
v -0.052970 0.195123 1.024250
v -0.062294 0.263407 1.044272
v -0.074800 0.328913 1.068294
v -0.093365 0.386851 1.094118
v -0.018438 0.039841 0.997065
v -0.171345 0.442098 0.960842
v -0.005395 0.039841 0.938020
v -0.158302 0.442098 0.901797
v -0.132010 0.378492 0.970465
v -0.096287 0.314548 0.980768
v -0.068080 0.248167 0.987469
v -0.046395 0.179883 0.991661
v -0.029848 0.110441 0.994860
v -0.016805 0.110441 0.935815
v -0.033353 0.179883 0.932616
v -0.055038 0.248167 0.928424
v -0.083244 0.314548 0.921723
v -0.118967 0.378492 0.911420
v 0.062744 0.048114 0.966289
v 0.306894 0.630326 0.968785
v 0.047371 0.048114 1.052656
v 0.282613 0.642206 1.063725
v 0.233168 0.528684 0.972623
v 0.177467 0.450100 0.972977
v 0.135275 0.350339 0.977229
v 0.103591 0.251278 0.972450
v 0.079414 0.150536 0.968804
v 0.064041 0.150536 1.055170
v 0.088218 0.251278 1.058816
v 0.119901 0.350339 1.063595
v 0.158289 0.455174 1.063004
v 0.209923 0.539182 1.066565
vt 0.000000 0.802574
vt 0.117737 0.802574
vt 0.117737 0.945046
vt 0.000000 0.945046
vt 0.000000 0.090214
vt 0.117737 0.090214
vt 0.117737 0.232686
vt 0.000000 0.232686
vt 0.117737 0.375158
vt 0.000000 0.375158
vt 0.117737 0.517630
vt 0.000000 0.517630
vt 0.117737 0.660102
vt 0.000000 0.660102
vt 0.396850 0.790173
vt 0.514587 0.790173
vt 0.514587 0.932645
vt 0.396850 0.932645
vt 0.396850 0.077813
vt 0.514587 0.077813
vt 0.514587 0.220285
vt 0.396850 0.220285
vt 0.514587 0.362757
vt 0.396850 0.362757
vt 0.514587 0.505229
vt 0.396850 0.505229
vt 0.514587 0.647701
vt 0.396850 0.647701
vt 0.294537 0.794823
vt 0.412274 0.794823
vt 0.412274 0.937295
vt 0.294537 0.937295
vt 0.294537 0.082463
vt 0.412274 0.082463
vt 0.412274 0.224935
vt 0.294537 0.224935
vt 0.412274 0.367407
vt 0.294537 0.367407
vt 0.412274 0.509879
vt 0.294537 0.509879
vt 0.412274 0.652351
vt 0.294537 0.652351
vt 0.505364 0.790173
vt 0.623101 0.790173
vt 0.623101 0.932645
vt 0.505364 0.932645
vt 0.505364 0.077813
vt 0.623101 0.077813
vt 0.623101 0.220285
vt 0.505364 0.220285
vt 0.623101 0.362757
vt 0.505364 0.362757
vt 0.623101 0.505229
vt 0.505364 0.505229
vt 0.623101 0.647701
vt 0.505364 0.647701
vt 0.294537 0.794823
vt 0.412274 0.794823
vt 0.412274 0.937295
vt 0.294537 0.937295
vt 0.294537 0.082463
vt 0.412274 0.082463
vt 0.412274 0.224935
vt 0.294537 0.224935
vt 0.412274 0.367407
vt 0.294537 0.367407
vt 0.412274 0.509879
vt 0.294537 0.509879
vt 0.412274 0.652351
vt 0.294537 0.652351
vt 0.398400 0.782422
vt 0.516137 0.782422
vt 0.516137 0.924894
vt 0.398400 0.924894
vt 0.398400 0.070062
vt 0.516137 0.070062
vt 0.516137 0.212534
vt 0.398400 0.212534
vt 0.516137 0.355006
vt 0.398400 0.355006
vt 0.516137 0.497478
vt 0.398400 0.497478
vt 0.516137 0.639950
vt 0.398400 0.639950
vt 0.000000 0.802574
vt 0.117737 0.802574
vt 0.117737 0.945046
vt 0.000000 0.945046
vt 0.000000 0.090214
vt 0.117737 0.090214
vt 0.117737 0.232686
vt 0.000000 0.232686
vt 0.117737 0.375158
vt 0.000000 0.375158
vt 0.117737 0.517630
vt 0.000000 0.517630
vt 0.117737 0.660102
vt 0.000000 0.660102
vt 0.396850 0.790173
vt 0.514587 0.790173
vt 0.514587 0.932645
vt 0.396850 0.932645
vt 0.396850 0.077813
vt 0.514587 0.077813
vt 0.514587 0.220285
vt 0.396850 0.220285
vt 0.514587 0.362757
vt 0.396850 0.362757
vt 0.514587 0.505229
vt 0.396850 0.505229
vt 0.514587 0.647701
vt 0.396850 0.647701
vt 0.294537 0.794823
vt 0.412274 0.794823
vt 0.412274 0.937295
vt 0.294537 0.937295
vt 0.294537 0.082463
vt 0.412274 0.082463
vt 0.412274 0.224935
vt 0.294537 0.224935
vt 0.412274 0.367407
vt 0.294537 0.367407
vt 0.412274 0.509879
vt 0.294537 0.509879
vt 0.412274 0.652351
vt 0.294537 0.652351
vt 0.505364 0.790173
vt 0.623101 0.790173
vt 0.623101 0.932645
vt 0.505364 0.932645
vt 0.505364 0.077813
vt 0.623101 0.077813
vt 0.623101 0.220285
vt 0.505364 0.220285
vt 0.623101 0.362757
vt 0.505364 0.362757
vt 0.623101 0.505229
vt 0.505364 0.505229
vt 0.623101 0.647701
vt 0.505364 0.647701
vt 0.294537 0.794823
vt 0.412274 0.794823
vt 0.412274 0.937295
vt 0.294537 0.937295
vt 0.294537 0.082463
vt 0.412274 0.082463
vt 0.412274 0.224935
vt 0.294537 0.224935
vt 0.412274 0.367407
vt 0.294537 0.367407
vt 0.412274 0.509879
vt 0.294537 0.509879
vt 0.412274 0.652351
vt 0.294537 0.652351
vt 0.398400 0.782422
vt 0.516137 0.782422
vt 0.516137 0.924894
vt 0.398400 0.924894
vt 0.398400 0.070062
vt 0.516137 0.070062
vt 0.516137 0.212534
vt 0.398400 0.212534
vt 0.516137 0.355006
vt 0.398400 0.355006
vt 0.516137 0.497478
vt 0.398400 0.497478
vt 0.516137 0.639950
vt 0.398400 0.639950
vn 0.7990 0.6013 0.0052
vn 0.7986 0.6018 0.0050
vn 0.8067 0.5909 0.0101
vn 0.9866 0.1219 0.1079
vn 0.9832 0.1715 0.0623
vn 0.9832 0.1718 0.0620
vn 0.9624 0.2711 -0.0128
vn 0.9627 0.2701 -0.0122
vn 0.9171 0.3971 -0.0348
vn 0.9178 0.3953 -0.0349
vn 0.8401 0.5422 -0.0149
vn 0.8398 0.5426 -0.0148
vn 0.5396 0.5029 0.6752
vn 0.5405 0.5012 0.6757
vn 0.5151 0.5444 0.6620
vn 0.5773 0.1929 0.7934
vn 0.5981 0.2225 0.7699
vn 0.5973 0.2215 0.7708
vn 0.6091 0.2672 0.7467
vn 0.6091 0.2673 0.7467
vn 0.5860 0.3356 0.7374
vn 0.5854 0.3376 0.7371
vn 0.5666 0.4228 0.7072
vn 0.5666 0.4238 0.7067
vn -0.0915 0.4734 0.8760
vn -0.0916 0.4727 0.8764
vn -0.0898 0.5036 0.8592
vn -0.1317 0.2201 0.9665
vn -0.1146 0.2292 0.9666
vn -0.1144 0.2293 0.9666
vn -0.0970 0.2723 0.9573
vn -0.0970 0.2727 0.9572
vn -0.0955 0.3423 0.9347
vn -0.0955 0.3426 0.9346
vn -0.0937 0.4101 0.9072
vn -0.0937 0.4105 0.9070
vn -0.8398 0.5015 0.2078
vn -0.8387 0.5035 0.2075
vn -0.8242 0.5282 0.2040
vn -0.8997 0.2299 0.3711
vn -0.9175 0.2438 0.3142
vn -0.9185 0.2446 0.3106
vn -0.9281 0.2821 0.2427
vn -0.9280 0.2830 0.2423
vn -0.9111 0.3451 0.2254
vn -0.8759 0.4310 0.2167
vn -0.8771 0.4285 0.2170
vn -0.4003 0.5193 -0.7551
vn -0.4001 0.5198 -0.7548
vn -0.3951 0.5369 -0.7454
vn -0.4621 0.1624 -0.8718
vn -0.4590 0.1991 -0.8658
vn -0.4590 0.1993 -0.8658
vn -0.4507 0.2717 -0.8503
vn -0.4507 0.2720 -0.8502
vn -0.4380 0.3543 -0.8262
vn -0.4380 0.3544 -0.8262
vn -0.4177 0.4524 -0.7879
vn -0.4180 0.4511 -0.7885
vn 0.3279 0.5477 0.7697
vn 0.3291 0.5472 0.7696
vn 0.3096 0.5554 0.7718
vn 0.4977 0.1624 0.8520
vn 0.4943 0.1991 0.8462
vn 0.4943 0.1993 0.8461
vn 0.4854 0.2717 0.8310
vn 0.4854 0.2720 0.8309
vn 0.4648 0.3313 0.8210
vn 0.4639 0.3328 0.8210
vn 0.4013 0.4486 0.7986
vn 0.3980 0.4544 0.7969
vn -0.5217 0.6013 0.6052
vn -0.5212 0.6018 0.6051
vn -0.5304 0.5909 0.6079
vn -0.7215 0.1219 0.6816
vn -0.6845 0.1715 0.7085
vn -0.6843 0.1718 0.7087
vn -0.6138 0.2711 0.7414
vn -0.6145 0.2701 0.7412
vn -0.5677 0.3971 0.7211
vn -0.5681 0.3953 0.7218
vn -0.5329 0.5422 0.6496
vn -0.5328 0.5426 0.6493
vn -0.8639 0.5029 -0.0264
vn -0.8649 0.5012 -0.0260
vn -0.8380 0.5444 -0.0366
vn -0.9784 0.1929 -0.0744
vn -0.9739 0.2225 -0.0432
vn -0.9742 0.2215 -0.0444
vn -0.9634 0.2672 -0.0198
vn -0.9634 0.2673 -0.0198
vn -0.9414 0.3356 -0.0314
vn -0.9408 0.3376 -0.0316
vn -0.9058 0.4228 -0.0266
vn -0.9054 0.4238 -0.0263
vn -0.6080 0.4734 -0.6373
vn -0.6082 0.4727 -0.6376
vn -0.5963 0.5036 -0.6251
vn -0.6509 0.2201 -0.7266
vn -0.6620 0.2292 -0.7136
vn -0.6621 0.2293 -0.7135
vn -0.6663 0.2723 -0.6942
vn -0.6662 0.2727 -0.6941
vn -0.6501 0.3423 -0.6783
vn -0.6500 0.3426 -0.6782
vn -0.6303 0.4101 -0.6592
vn -0.6301 0.4105 -0.6590
vn 0.3858 0.5015 -0.7743
vn 0.3853 0.5035 -0.7733
vn 0.3787 0.5282 -0.7600
vn 0.3002 0.2299 -0.9257
vn 0.3551 0.2438 -0.9025
vn 0.3586 0.2446 -0.9009
vn 0.4164 0.2821 -0.8643
vn 0.4167 0.2830 -0.8639
vn 0.4186 0.3451 -0.8401
vn 0.4186 0.3451 -0.8400
vn 0.4024 0.4310 -0.8076
vn 0.4029 0.4285 -0.8087
vn 0.8345 0.5193 0.1843
vn 0.8342 0.5198 0.1842
vn 0.8238 0.5369 0.1820
vn 0.9635 0.1624 0.2128
vn 0.9569 0.1991 0.2114
vn 0.9568 0.1993 0.2113
vn 0.9397 0.2717 0.2076
vn 0.9396 0.2720 0.2075
vn 0.9131 0.3543 0.2017
vn 0.9131 0.3544 0.2017
vn 0.8708 0.4524 0.1924
vn 0.8714 0.4511 0.1925
vn -0.7987 0.5477 -0.2490
vn -0.7994 0.5472 -0.2479
vn -0.7884 0.5554 -0.2642
vn -0.9714 0.1624 -0.1729
vn -0.9648 0.1991 -0.1717
vn -0.9648 0.1993 -0.1717
vn -0.9474 0.2717 -0.1686
vn -0.9474 0.2720 -0.1686
vn -0.9266 0.3313 -0.1779
vn -0.9259 0.3328 -0.1786
vn -0.8683 0.4486 -0.2118
vn -0.8649 0.4544 -0.2131
usemtl Foliage01_col
s 1
f 5/1/1 14/2/2 4/3/3 2/4/3
f 1/5/4 3/6/4 10/7/5 9/8/6
f 9/8/6 10/7/5 11/9/7 8/10/8
f 8/10/8 11/9/7 12/11/9 7/12/10
f 7/12/10 12/11/9 13/13/11 6/14/12
f 6/14/12 13/13/11 14/2/2 5/1/1
f 19/15/13 28/16/14 18/17/15 16/18/15
f 15/19/16 17/20/16 24/21/17 23/22/18
f 23/22/18 24/21/17 25/23/19 22/24/20
f 22/24/20 25/23/19 26/25/21 21/26/22
f 21/26/22 26/25/21 27/27/23 20/28/24
f 20/28/24 27/27/23 28/16/14 19/15/13
f 33/29/25 42/30/26 32/31/27 30/32/27
f 29/33/28 31/34/28 38/35/29 37/36/30
f 37/36/30 38/35/29 39/37/31 36/38/32
f 36/38/32 39/37/31 40/39/33 35/40/34
f 35/40/34 40/39/33 41/41/35 34/42/36
f 34/42/36 41/41/35 42/30/26 33/29/25
f 47/43/37 56/44/38 46/45/39 44/46/39
f 43/47/40 45/48/40 52/49/41 51/50/42
f 51/50/42 52/49/41 53/51/43 50/52/44
f 50/52/44 53/51/43 54/53/45 49/54/45
f 49/54/45 54/53/45 55/55/46 48/56/47
f 48/56/47 55/55/46 56/44/38 47/43/37
f 61/57/48 70/58/49 60/59/50 58/60/50
f 57/61/51 59/62/51 66/63/52 65/64/53
f 65/64/53 66/63/52 67/65/54 64/66/55
f 64/66/55 67/65/54 68/67/56 63/68/57
f 63/68/57 68/67/56 69/69/58 62/70/59
f 62/70/59 69/69/58 70/58/49 61/57/48
f 75/71/60 84/72/61 74/73/62 72/74/62
f 71/75/63 73/76/63 80/77/64 79/78/65
f 79/78/65 80/77/64 81/79/66 78/80/67
f 78/80/67 81/79/66 82/81/68 77/82/69
f 77/82/69 82/81/68 83/83/70 76/84/71
f 76/84/71 83/83/70 84/72/61 75/71/60
f 89/85/72 98/86/73 88/87/74 86/88/74
f 85/89/75 87/90/75 94/91/76 93/92/77
f 93/92/77 94/91/76 95/93/78 92/94/79
f 92/94/79 95/93/78 96/95/80 91/96/81
f 91/96/81 96/95/80 97/97/82 90/98/83
f 90/98/83 97/97/82 98/86/73 89/85/72
f 103/99/84 112/100/85 102/101/86 100/102/86
f 99/103/87 101/104/87 108/105/88 107/106/89
f 107/106/89 108/105/88 109/107/90 106/108/91
f 106/108/91 109/107/90 110/109/92 105/110/93
f 105/110/93 110/109/92 111/111/94 104/112/95
f 104/112/95 111/111/94 112/100/85 103/99/84
f 117/113/96 126/114/97 116/115/98 114/116/98
f 113/117/99 115/118/99 122/119/100 121/120/101
f 121/120/101 122/119/100 123/121/102 120/122/103
f 120/122/103 123/121/102 124/123/104 119/124/105
f 119/124/105 124/123/104 125/125/106 118/126/107
f 118/126/107 125/125/106 126/114/97 117/113/96
f 131/127/108 140/128/109 130/129/110 128/130/110
f 127/131/111 129/132/111 136/133/112 135/134/113
f 135/134/113 136/133/112 137/135/114 134/136/115
f 134/136/115 137/135/114 138/137/116 133/138/117
f 133/138/117 138/137/116 139/139/118 132/140/119
f 132/140/119 139/139/118 140/128/109 131/127/108
f 145/141/120 154/142/121 144/143/122 142/144/122
f 141/145/123 143/146/123 150/147/124 149/148/125
f 149/148/125 150/147/124 151/149/126 148/150/127
f 148/150/127 151/149/126 152/151/128 147/152/129
f 147/152/129 152/151/128 153/153/130 146/154/131
f 146/154/131 153/153/130 154/142/121 145/141/120
f 159/155/132 168/156/133 158/157/134 156/158/134
f 155/159/135 157/160/135 164/161/136 163/162/137
f 163/162/137 164/161/136 165/163/138 162/164/139
f 162/164/139 165/163/138 166/165/140 161/166/141
f 161/166/141 166/165/140 167/167/142 160/168/143
f 160/168/143 167/167/142 168/156/133 159/155/132
